<svg xmlns="http://www.w3.org/2000/svg" viewBox="0 0 64 64" width="64" height="64">
  <rect width="64" height="64" rx="12" fill="#16202E"/>
  <path fill="#fff" d="M32 8l3.4 1.6 3.7-.5 2.4 2.8 3.6 1 1 3.6 2.8 2.4-.5 3.7L54 32l-1.6 3.4.5 3.7-2.8 2.4-1 3.6-3.6 1-2.4 2.8-3.7-.5L32 56l-3.4-1.6-3.7.5-2.4-2.8-3.6-1-1-3.6L15.1 45l.5-3.7L14 32l1.6-3.4-.5-3.7 2.8-2.4 1-3.6 3.6-1 2.4-2.8 3.7.5L32 8z"/>
  <circle cx="32" cy="32" r="12" fill="#15677A"/>
  <circle cx="32" cy="32" r="12" fill="none" stroke="#fff" stroke-width="2"/>
  <path d="M32 32 L40 25" stroke="#D9432E" stroke-width="3.2" stroke-linecap="round" fill="none"/>
  <circle cx="32" cy="32" r="2.6" fill="#fff"/>
</svg>
